<?xml version="1.0" encoding="UTF-8"?>
<svg version="1.1" xmlns="http://www.w3.org/2000/svg" width="512" height="512">
<path d="M0 0 C5.92233822 0.02295917 11.84395766 0.009507 17.76627064 -0.01428986 C22.39150809 -0.02882529 27.0165781 -0.02410941 31.64182091 -0.01377869 C33.82518287 -0.01114175 36.00856085 -0.01427208 38.19190407 -0.0236969 C53.73449319 -0.07618412 68.57539218 0.69592544 82.57006836 8.27148438 C83.2275708 8.6151001 83.88507324 8.95871582 84.5625 9.31274414 C104.39509244 19.94452456 118.70269815 36.68940949 125.40991211 58.22070312 C127.32846551 64.90679902 128.95753855 71.55557491 129.25756836 78.52148438 C129.2975293 79.27171875 129.33749023 80.02195312 129.37866211 80.79492188 C129.70474682 92.6490602 127.22256457 103.89983851 123.32006836 115.02148438 C122.93471924 116.14917236 122.54937012 117.27686035 122.15234375 118.4387207 C117.40618684 132.21020199 112.34568544 145.87340912 107.25756836 159.52148438 C108.57712524 159.88935059 108.57712524 159.88935059 109.92333984 160.26464844 C111.08422119 160.60206055 112.24510254 160.93947266 113.44116211 161.28710938 C114.5889917 161.61485352 115.73682129 161.94259766 116.91943359 162.28027344 C123.65254867 164.78383206 128.47624799 169.49321228 131.75756836 175.83398438 C134.95922344 183.70471977 135.8657527 193.5306113 133.32006836 201.83398438 C129.56914592 209.81759911 122.3780695 215.6343434 115.57006836 220.95898438 C114.97774414 221.42578613 114.38541992 221.89258789 113.77514648 222.37353516 C110.78750438 224.69111927 107.7886976 226.84522012 104.56225586 228.81835938 C94.28260414 235.41371114 91.21695604 243.36918474 87.61303711 254.80273438 C84.72367139 263.74459079 80.39418542 272.10484908 76.25756836 280.52148438 C77.17274734 280.51260193 78.08792633 280.50371948 79.03083801 280.49456787 C87.69516857 280.41410721 96.35937195 280.35336085 105.02399158 280.31423569 C109.47758355 280.29344414 113.93086438 280.26528263 118.38427734 280.21972656 C122.68963832 280.17596532 126.99470179 280.15228401 131.30026817 280.1419754 C132.9351742 280.13463794 134.57006567 280.12031089 136.20484352 280.09856415 C149.97411082 279.92283853 160.93872092 281.6707888 171.25756836 291.52148438 C182.92555676 303.74399103 182.79818419 316.75938469 182.50756836 332.70898438 C182.48746953 334.63409597 182.46922475 336.55922786 182.45288086 338.484375 C182.4091605 343.16391941 182.34032073 347.84247411 182.25756836 352.52148438 C182.86560806 352.71547821 183.47364777 352.90947205 184.10011292 353.10934448 C184.90303268 353.37022858 185.70595245 353.63111267 186.53320312 353.89990234 C187.32686783 354.15577118 188.12053253 354.41164001 188.93824768 354.67526245 C198.96877399 358.33497684 207.72969623 366.20455087 215.25756836 373.52148438 C215.94206055 374.14410156 216.62655273 374.76671875 217.33178711 375.40820312 C233.91642298 390.95018998 245.02367705 415.12147669 246.46072388 437.71562195 C246.55235242 441.19252983 246.58705153 444.66446842 246.59350586 448.14257812 C246.60016266 449.40489761 246.60681946 450.6672171 246.61367798 451.9677887 C246.62374313 454.61595973 246.629369 457.26371887 246.62817383 459.91186523 C246.6279689 463.30028629 246.65549473 466.68788496 246.68971825 470.07610989 C246.71727693 473.32740189 246.71613276 476.57868511 246.71850586 479.83007812 C246.74006241 481.65036781 246.74006241 481.65036781 246.76205444 483.50743103 C246.75590118 484.63282791 246.74974792 485.75822479 246.7434082 486.91772461 C246.74625824 487.90602768 246.74910828 488.89433075 246.75204468 489.9125824 C246.08953236 493.40805759 245.09463643 494.3801742 242.25756836 496.52148438 C239.42657915 496.91346062 236.98522121 497.05920985 234.15527344 497.02484894 C233.32793009 497.0306627 232.50058674 497.03647646 231.64817238 497.0424664 C228.85752321 497.05714101 226.06774333 497.04314659 223.27709961 497.02941895 C221.26359098 497.03402491 219.25008571 497.04037577 217.23658752 497.04832792 C211.68928849 497.06508614 206.14226333 497.05674541 200.59496307 497.04438305 C194.61805834 497.03536139 188.64120189 497.04928792 182.66430664 497.06030273 C171.62756767 497.07709254 160.5909044 497.07559372 149.55416489 497.06465686 C139.35909856 497.05460339 129.1640644 497.05196374 118.96899414 497.05674744 C118.29331237 497.05705298 117.6176306 497.05735852 116.92147362 497.05767332 C114.17881354 497.05891863 111.43615347 497.06019222 108.69349343 497.06151237 C82.95360811 497.07375447 57.21377868 497.06264488 31.47390199 497.04112478 C8.59446917 497.02214167 -14.2848746 497.02384016 -37.16430664 497.04296875 C-62.85644396 497.06437702 -88.54853188 497.07288634 -114.24067688 497.0605197 C-116.97840372 497.05923678 -119.71613057 497.05798542 -122.45385742 497.05674744 C-123.12797916 497.05643113 -123.8021009 497.05611482 -124.49665058 497.05578892 C-134.68650128 497.05123478 -144.87631634 497.05656802 -155.06616211 497.06666565 C-166.64991847 497.07808718 -178.23359007 497.07489035 -189.81733704 497.05354267 C-195.73169935 497.04300366 -201.64588058 497.03895891 -207.5602417 497.05213928 C-212.96858801 497.06401002 -218.37658444 497.05758879 -223.78489876 497.03622907 C-225.74714879 497.03174036 -227.70942805 497.03407968 -229.67165947 497.04373223 C-232.32824561 497.05580354 -234.98361535 497.04351638 -237.64013672 497.02484894 C-238.79704041 497.03889593 -238.79704041 497.03889593 -239.9773159 497.05322671 C-243.47266295 497.00375101 -245.39157255 496.78680678 -248.21707916 494.65013647 C-250.1569659 491.94299565 -250.24910167 490.34400545 -250.26000977 487.02880859 C-250.27261841 485.92600555 -250.28522705 484.82320251 -250.29821777 483.6869812 C-250.29012085 482.49541412 -250.28202393 481.30384705 -250.27368164 480.07617188 C-250.27750854 478.83715118 -250.28133545 477.59813049 -250.28527832 476.32156372 C-250.28800363 473.68988669 -250.28261878 471.05968867 -250.26391602 468.42822266 C-250.23704391 464.46026819 -250.26356953 460.4933596 -250.28930664 456.52539062 C-250.30871773 439.58984486 -249.45418016 423.48829884 -242.55493164 407.77148438 C-242.26086426 407.08304443 -241.96679688 406.39460449 -241.66381836 405.68530273 C-236.5734724 394.21155199 -229.47792789 384.51751297 -220.74243164 375.52148438 C-220.06954102 374.77511719 -219.39665039 374.02875 -218.70336914 373.25976562 C-210.27501829 364.21586106 -199.33594478 356.84448927 -187.74243164 352.52148438 C-187.08243164 352.52148438 -186.42243164 352.52148438 -185.74243164 352.52148438 C-185.76337891 351.33707764 -185.78432617 350.1526709 -185.8059082 348.93237305 C-185.87891834 344.49125506 -185.92445087 340.05018889 -185.9621582 335.60864258 C-185.98213583 333.69514003 -186.00932763 331.78169745 -186.04418945 329.8684082 C-186.31106249 314.8332521 -185.64392923 302.94107294 -174.74243164 291.52148438 C-163.68008386 280.96102005 -151.85010687 279.93679961 -137.26196289 280.13085938 C-135.59617294 280.13833545 -133.93037409 280.14402191 -132.26457214 280.14801025 C-127.91611726 280.16315931 -123.56821125 280.20234597 -119.2199707 280.24682617 C-114.7685488 280.28801283 -110.31703673 280.30607083 -105.86547852 280.32617188 C-97.15754655 280.36885284 -88.4500577 280.43697083 -79.74243164 280.52148438 C-80.02637787 279.94555542 -80.3103241 279.36962646 -80.60287476 278.77624512 C-90.10179351 259.4222193 -90.10179351 259.4222193 -92.65112305 250.51293945 C-96.06476017 238.63967194 -101.56137661 232.69811554 -111.66870117 225.92871094 C-114.99621883 223.67066858 -118.14666896 221.1957683 -121.30493164 218.70898438 C-121.88428467 218.25724854 -122.4636377 217.8055127 -123.06054688 217.34008789 C-129.94709469 211.89974524 -134.74324426 206.86026547 -137.74243164 198.52148438 C-138.04879448 195.78905907 -138.22150469 193.36477258 -138.17993164 190.64648438 C-138.1716333 189.94394531 -138.16333496 189.24140625 -138.15478516 188.51757812 C-137.86547903 179.60571412 -134.66628756 173.68606914 -128.66430664 167.24804688 C-123.49633129 162.60527227 -118.51907027 161.44185973 -111.74243164 160.52148438 C-112.01360809 159.99023453 -112.28478455 159.45898468 -112.56417847 158.91163635 C-115.39907354 153.35295237 -118.21955285 147.78712395 -121.03198242 142.21704102 C-122.08172857 140.14260425 -123.13506691 138.06998103 -124.19213867 135.99926758 C-125.7159202 133.01274195 -127.22642041 130.01980976 -128.73461914 127.02539062 C-129.20551971 126.1093959 -129.67642029 125.19340118 -130.16159058 124.24964905 C-135.2546643 114.06786999 -137.56947023 104.24712496 -134.24243164 93.14648438 C-132.41663079 86.87029396 -131.14572944 80.43767577 -133.69165039 74.19335938 C-139.23405751 64.75203494 -147.54070063 62.66593408 -157.45922852 59.52148438 C-158.46147461 59.19148438 -159.4637207 58.86148438 -160.49633789 58.52148438 C-161.40714111 58.23273438 -162.31794434 57.94398437 -163.25634766 57.64648438 C-166.92184812 55.98777612 -169.19803366 53.90062593 -170.67993164 50.14648438 C-170.77013405 46.35798334 -169.83653384 44.7152827 -167.74243164 41.52148438 C-164.76381445 39.23756065 -161.54139308 37.4876342 -158.24243164 35.70898438 C-157.30044922 35.18908936 -156.3584668 34.66919434 -155.38793945 34.13354492 C-152.51991072 32.56844403 -149.63680363 31.03724783 -146.74243164 29.52148438 C-145.53296875 28.88774902 -145.53296875 28.88774902 -144.29907227 28.24121094 C-98.45962572 4.61806905 -50.62134962 -0.19829613 0 0 Z " fill="#000000" transform="translate(257.742431640625,7.478515625)"/>
<path d="M0 0 C1.56368525 -0.00874829 1.56368525 -0.00874829 3.1589601 -0.01767331 C4.29775941 -0.01389399 5.43655872 -0.01011467 6.6098671 -0.00622082 C7.82468773 -0.01004636 9.03950837 -0.01387191 10.29114175 -0.01781338 C13.66021324 -0.02634894 17.02906657 -0.02590886 20.39813185 -0.02163279 C24.03289026 -0.01916745 27.66762296 -0.02817745 31.30237198 -0.03567028 C38.42282368 -0.04842563 45.54323768 -0.05020985 52.66369888 -0.04787002 C58.45250412 -0.04608727 64.24129791 -0.04783557 70.03010178 -0.05209446 C70.85388347 -0.05268965 71.67766516 -0.05328484 72.52640994 -0.05389806 C74.19993669 -0.05510982 75.87346344 -0.05632395 77.54699019 -0.05754044 C93.24565564 -0.06841965 108.94429963 -0.06625196 124.6429663 -0.06015559 C138.99875071 -0.0549887 153.35446721 -0.06623517 167.71023819 -0.08525381 C182.45371816 -0.10463615 197.19716601 -0.11288735 211.94065881 -0.10913056 C220.21672693 -0.10721878 228.49273729 -0.1097036 236.76879501 -0.1238451 C243.81608587 -0.13576508 250.86328344 -0.13715705 257.9105756 -0.12505493 C261.50460888 -0.11916994 265.09847157 -0.11805608 268.69249344 -0.13005733 C272.59309553 -0.1429306 276.49343975 -0.13244222 280.39404678 -0.11974621 C281.5239232 -0.12712049 282.65379962 -0.13449478 283.81791472 -0.14209253 C291.12342675 -0.09208959 297.8521342 0.6004359 304.02545547 4.79744434 C304.53463516 5.34013966 305.04381485 5.88283497 305.56842422 6.44197559 C306.09049454 6.97178028 306.61256485 7.50158497 307.15045547 8.04744434 C341.71959538 55.56949798 312.75592422 125.48908599 312.75592422 184.25447559 C201.87592422 184.25447559 90.99592422 184.25447559 -23.24407578 184.25447559 C-23.24407578 14.76252568 -23.24407578 14.76252568 -17.06048203 7.79353809 C-15.94479843 6.84607716 -15.94479843 6.84607716 -14.80657578 5.87947559 C-14.06536484 5.23236622 -13.3241539 4.58525684 -12.56048203 3.91853809 C-8.50681183 1.00645798 -4.9615442 0.0047865 0 0 Z " fill="#D4CDC1" transform="translate(111.24407577514648,303.7455244064331)"/>
<path d="M0 0 C4.33010032 0.01349705 8.66009695 0.00824403 12.99020863 0.00287151 C17.19488464 -0.00048044 21.3994981 0.00618162 25.60416222 0.01600075 C27.59627645 0.01981768 29.58839766 0.02101573 31.58051491 0.0194149 C53.73750615 0.01643135 73.6549597 3.30417611 90.418396 19.3225708 C99.96900051 29.45626485 107.66654639 43.38813406 109.418396 57.3225708 C109.50685791 58.00754639 109.59531982 58.69252197 109.6864624 59.39825439 C111.61929895 76.92138803 105.52328578 92.22417128 99.418396 108.3225708 C99.088396 108.3225708 98.758396 108.3225708 98.418396 108.3225708 C98.0162085 106.54366455 98.0162085 106.54366455 97.605896 104.7288208 C97.21108084 103.09315803 96.81518729 101.45775531 96.418396 99.8225708 C96.16122803 98.66434814 96.16122803 98.66434814 95.89886475 97.48272705 C92.41460582 83.43329588 84.28141196 70.81548758 76.28216553 58.92584229 C74.89442326 56.84919753 73.54581378 54.75001672 72.19573975 52.64874268 C71.30348642 51.31063241 70.4090375 49.97398294 69.512146 48.63897705 C69.11918335 48.01624405 68.7262207 47.39351105 68.3213501 46.75190735 C66.67977193 44.38157572 65.2132771 42.59512965 62.43907166 41.64387512 C58.4009988 41.00154989 56.61079121 41.21139433 53.03167725 43.27960205 C51.91334457 44.21012441 50.81365857 45.16338924 49.730896 46.1350708 C48.50731469 47.15765752 47.2833478 48.17978302 46.059021 49.20147705 C45.44993896 49.7237085 44.84085693 50.24593994 44.21331787 50.78399658 C28.58916844 64.17673185 13.11349682 71.88684744 -7.894104 72.7600708 C-19.41622534 73.2672684 -30.34259506 75.3437802 -40.71832275 80.56866455 C-41.39018616 80.90656006 -42.06204956 81.24445557 -42.75427246 81.59259033 C-52.91728308 86.87901466 -62.32897519 93.45392368 -71.831604 99.8225708 C-73.77636332 101.11637145 -75.72167326 102.40934482 -77.6675415 103.70147705 C-82.19601077 106.71120653 -86.71819433 109.7301785 -91.23712158 112.75421143 C-94.46915232 114.91630301 -97.70483869 117.07288747 -100.940979 119.2288208 C-101.85846924 119.84048096 -102.77595947 120.45214111 -103.72125244 121.08233643 C-104.33516846 121.49161377 -104.94908447 121.90089111 -105.581604 122.3225708 C-110.22539016 118.22567502 -112.49990993 112.24695096 -115.269104 106.8225708 C-115.87560791 105.6881958 -116.48211182 104.5538208 -117.10699463 103.3850708 C-121.39126215 94.98038852 -122.91333983 88.52941101 -120.925354 79.26397705 C-120.6469165 78.47893799 -120.368479 77.69389893 -120.081604 76.8850708 C-117.10291255 66.86583592 -117.84365932 57.65828429 -122.581604 48.3225708 C-127.67198032 39.96169364 -134.47472108 34.75762313 -143.581604 31.3225708 C-142.581604 28.3225708 -142.581604 28.3225708 -141.07305908 27.28277588 C-140.42232422 26.97235352 -139.77158936 26.66193115 -139.10113525 26.34210205 C-138.36169678 25.98688477 -137.6222583 25.63166748 -136.8604126 25.26568604 C-136.04653076 24.89258301 -135.23264893 24.51947998 -134.394104 24.1350708 C-133.53897217 23.74069824 -132.68384033 23.34632568 -131.80279541 22.94000244 C-116.67521579 16.094615 -101.30787178 11.01114379 -85.206604 7.0100708 C-84.5570575 6.8448996 -83.90751099 6.67972839 -83.23828125 6.509552 C-78.381137 5.28670517 -73.50313493 4.25165435 -68.581604 3.3225708 C-67.82243683 3.17568817 -67.06326965 3.02880554 -66.28109741 2.87747192 C-44.4841505 -1.11387714 -22.05968755 -0.09341468 0 0 Z " fill="#966846" transform="translate(260.58160400390625,23.67742919921875)"/>
<path d="M0 0 C5.28 0 10.56 0 16 0 C16.02578125 1.98902344 16.0515625 3.97804687 16.078125 6.02734375 C16.11989366 7.98350939 16.16180468 9.93967455 16.20751953 11.89575195 C16.24915877 13.89706771 16.2712655 15.8987594 16.29296875 17.90039062 C16.51222135 26.60471866 17.24648091 33.53010351 22.96484375 40.33984375 C23.61582031 40.86707031 24.26679688 41.39429688 24.9375 41.9375 C25.91009766 42.75541016 25.91009766 42.75541016 26.90234375 43.58984375 C33.19917537 47.82290933 39.48495213 47.33282043 46.8125 47.3125 C48.53823242 47.33666992 48.53823242 47.33666992 50.29882812 47.36132812 C59.41755573 47.36655376 66.59393914 46.18967783 73.4609375 39.77734375 C79.4694684 32.83855806 79.62796152 24.835914 80 16 C85.28 16 90.56 16 96 16 C96.0825 17.959375 96.165 19.91875 96.25 21.9375 C96.93555768 30.35614836 98.62915017 36.14095968 104.9375 41.9375 C111.71290015 47.63530172 118.31935208 47.33605282 126.8125 47.3125 C127.96298828 47.32861328 129.11347656 47.34472656 130.29882812 47.36132812 C139.27002756 47.36646921 146.64896702 46.30437868 153.33886719 39.83959961 C159.96543376 32.50109592 159.64830363 23.31667901 159.75 13.9375 C159.77821611 12.58134307 159.80815124 11.22522077 159.83984375 9.86914062 C159.91007998 6.57974371 159.95735748 3.28987033 160 0 C165.28 0 170.56 0 176 0 C175.59271895 19.73276691 173.33461302 39.21391328 167 58 C166.72671875 58.81291504 166.4534375 59.62583008 166.171875 60.46337891 C162.24957198 72.00384145 158.1014018 83.47723747 152.04135132 94.09681702 C150.96473159 95.99615462 150.96473159 95.99615462 150.10665894 98.0561676 C148.94717978 100.41162619 147.86184542 102.13882896 146 104 C142.30632932 105.2036802 138.72183341 105.09416798 134.86328125 105.03515625 C133.7391684 105.0491748 132.61505554 105.06319336 131.45687866 105.07763672 C127.74108053 105.11284825 124.02832904 105.0895394 120.3125 105.0625 C117.7308697 105.06788851 115.14924335 105.07565225 112.56762695 105.08569336 C107.15695817 105.09749028 101.74743435 105.08110184 96.33691406 105.04296875 C90.08721888 104.99942901 83.83961137 105.0135328 77.58996677 105.05757999 C71.5706206 105.09830105 65.55229342 105.09393872 59.5328064 105.07052612 C56.9747183 105.06518675 54.41657697 105.07174827 51.85855103 105.09036255 C48.28316849 105.11066975 44.71180177 105.07974029 41.13671875 105.03515625 C39.54843765 105.05944702 39.54843765 105.05944702 37.92807007 105.08422852 C30.92394667 104.92228848 30.92394667 104.92228848 28.27404785 102.27714539 C26.97206631 100.22969584 25.96480905 98.22324207 25 96 C24.34495144 94.79064687 23.68234296 93.5853147 23.0078125 92.38671875 C11.47195931 70.06421098 4.19944608 45.88718259 1 21 C0.90356201 20.31631348 0.80712402 19.63262695 0.70776367 18.92822266 C-0.16059641 12.57752955 -0.06667191 6.4005036 0 0 Z " fill="#F8DDB1" transform="translate(168,184)"/>
<path d="M0 0 C3.01458027 3.82736887 5.59583873 7.97888853 8.25 12.0625 C8.63850128 12.65790588 9.02700256 13.25331177 9.42727661 13.86676025 C21.13794453 31.89953692 25.39034289 47.71717429 25.125 69.25 C25.11493849 70.68879577 25.10581831 72.12759845 25.09765625 73.56640625 C25.0759206 77.04441753 25.04157033 80.52216245 25 84 C23.6039151 84.00546844 23.6039151 84.00546844 22.17962646 84.01104736 C13.40984174 84.04798333 4.64040861 84.10574037 -4.12910843 84.18390274 C-8.63768219 84.22341776 -13.14605946 84.25558636 -17.65478516 84.27099609 C-22.00573036 84.28613637 -26.35613553 84.32053453 -30.70684052 84.36830902 C-32.36697446 84.38315008 -34.02718549 84.39104258 -35.68738556 84.39188385 C-38.01255413 84.39424719 -40.33622255 84.42127256 -42.66113281 84.45410156 C-43.3480571 84.4490712 -44.03498138 84.44404083 -44.74272156 84.43885803 C-48.06122252 84.51138798 -49.7573377 84.81360545 -52.42059326 86.85931396 C-54.42052405 89.56996715 -54.59090553 91.40901612 -54.75 94.75 C-54.8325 96.4825 -54.915 98.215 -55 100 C-60.28 100 -65.56 100 -71 100 C-71.1953125 97.23307292 -71.390625 94.46614583 -71.5859375 91.69921875 C-71.83865472 88.78471567 -71.83865472 88.78471567 -74 86 C-77.53753872 84.82082043 -80.39888168 84.83906253 -84.13354492 84.79467773 C-84.85574722 84.78477814 -85.57794952 84.77487854 -86.32203674 84.76467896 C-88.70814745 84.73310241 -91.09427806 84.70832178 -93.48046875 84.68359375 C-95.13528459 84.6630209 -96.79009521 84.64202434 -98.44490051 84.62062073 C-102.79975153 84.56543425 -107.15464971 84.51600987 -111.50958252 84.46777344 C-115.95369665 84.41753342 -120.39774232 84.36186041 -124.84179688 84.30664062 C-133.56114003 84.19910092 -142.28054047 84.09764665 -151 84 C-152.34957944 73.8309297 -152.34957944 73.8309297 -149.42007446 69.85656738 C-147.05978947 67.94082112 -144.64812017 66.34548522 -142.05078125 64.765625 C-141.12718307 64.15789246 -140.2035849 63.55015991 -139.2519989 62.92401123 C-136.2960964 60.99237384 -133.30667259 59.12162927 -130.3125 57.25 C-128.34844031 55.97907115 -126.38682048 54.70436337 -124.42773438 53.42578125 C-118.98768636 49.89220674 -113.50143091 46.43694343 -108 43 C-106.64199065 42.14400386 -105.28414256 41.28775178 -103.92651367 40.43115234 C-90.37557717 31.94624864 -78.19387634 28.02592541 -62.3125 27.125 C-52.97872503 26.4798201 -44.64102694 25.79031991 -36 22 C-35.38543945 21.73445313 -34.77087891 21.46890625 -34.13769531 21.1953125 C-22.82010704 16.21182502 -13.71561177 9.63306665 -4.26171875 1.703125 C-2 0 -2 0 0 0 Z " fill="#F9DEB1" transform="translate(319,84)"/>
<path d="M0 0 C19.74985922 7.89994369 33.50613165 26.01004382 42.28515625 44.7421875 C48.22544985 59.60421484 48.4099056 75.31762719 48.1875 91.0625 C48.125625 97.311875 48.06375 103.56125 48 110 C32.16 110 16.32 110 0 110 C0 73.7 0 37.4 0 0 Z " fill="#2C4C82" transform="translate(440,378)"/>
<path d="M0 0 C0 36.3 0 72.6 0 110 C-15.84 110 -31.68 110 -48 110 C-48.061875 103.750625 -48.12375 97.50125 -48.1875 91.0625 C-48.21481201 89.12898682 -48.24212402 87.19547363 -48.27026367 85.20336914 C-48.49307561 58.11140919 -41.23212035 34.51046652 -22.046875 14.8359375 C-6.71062027 0 -6.71062027 0 0 0 Z " fill="#2C4C82" transform="translate(72,378)"/>
<path d="M0 0 C6.69809768 4.76229994 11.16407958 11.54657266 13.3125 19.4375 C14.63589593 30.16397224 12.19041124 39.59787827 5.75 48.3125 C0.28372089 54.13558584 -8.47801718 57.97761801 -16.38671875 58.67578125 C-23.47576445 58.85184905 -28.58109455 58.08992943 -34.6875 54.4375 C-35.73744141 53.81875 -35.73744141 53.81875 -36.80859375 53.1875 C-44.18574415 48.27869671 -48.3361054 40.87045608 -50.6875 32.4375 C-51.56805277 24.27702844 -50.98966839 17.4871591 -46.6875 10.4375 C-46.26339844 9.73882812 -45.83929688 9.04015625 -45.40234375 8.3203125 C-34.72335 -7.44533287 -15.737631 -9.39997249 0 0 Z " fill="#030303" transform="translate(274.6875,405.5625)"/>
<path d="M0 0 C3.31338847 0.38694674 4.97134212 1.59924971 7.28393555 3.92749023 C7.90104904 4.54160263 8.51816254 5.15571503 9.15397644 5.78843689 C9.8082814 6.45508865 10.46258636 7.12174042 11.13671875 7.80859375 C12.15678764 8.8314724 12.15678764 8.8314724 13.19746399 9.87501526 C14.63231415 11.31658367 16.06356396 12.76174333 17.49145508 14.21020508 C19.68253274 16.43246205 21.88412416 18.64384819 24.08789062 20.85351562 C25.47979267 22.25458671 26.87108968 23.65625917 28.26171875 25.05859375 C28.92209641 25.72322128 29.58247406 26.38784882 30.26286316 27.07261658 C30.87052017 27.68988113 31.47817719 28.30714569 32.10424805 28.94311523 C32.64067429 29.48636948 33.17710052 30.02962372 33.7297821 30.58934021 C35.51953176 32.57697389 35.99648015 33.98152076 36.5 36.625 C35.20834832 45.34364881 23.67957248 53.60775522 17.58325195 59.7668457 C16.39203514 60.97481477 15.20623564 62.18814759 14.02563477 63.40649414 C12.30630253 65.18025809 10.57139006 66.93730376 8.83203125 68.69140625 C8.04286064 69.51458092 8.04286064 69.51458092 7.23774719 70.35438538 C5.72973633 71.85375977 5.72973633 71.85375977 3 74 C-0.77243569 73.895853 -2.69433429 71.76737444 -5.3125 69.1875 C-6.03050781 68.50042969 -6.74851562 67.81335938 -7.48828125 67.10546875 C-9 65 -9 65 -8.91503906 63.20727539 C-7.5934779 60.01937933 -5.30756926 57.93883562 -2.87109375 55.578125 C-2.36199966 55.07327576 -1.85290558 54.56842651 -1.3283844 54.04827881 C0.2949912 52.44166021 1.928497 50.84580178 3.5625 49.25 C4.6667005 48.16085016 5.77022445 47.07101395 6.87304688 45.98046875 C9.5742529 43.3122924 12.28459063 40.65371709 15 38 C13.41568547 34.09148801 10.73364905 31.47632644 7.7734375 28.578125 C7.01191879 27.82085114 7.01191879 27.82085114 6.23501587 27.04827881 C4.61966158 25.44407904 2.99747791 23.84699144 1.375 22.25 C0.27558302 21.16061893 -0.82338059 20.0707801 -1.921875 18.98046875 C-4.6093602 16.31498115 -7.30299021 13.65584857 -10 11 C-9.38729248 10.28553711 -9.38729248 10.28553711 -8.76220703 9.55664062 C-8.22450684 8.92951172 -7.68680664 8.30238281 -7.1328125 7.65625 C-6.60059082 7.03556641 -6.06836914 6.41488281 -5.52001953 5.77539062 C-4.30204799 4.35279361 -3.08789125 2.92693088 -1.875 1.5 C-1.25625 1.005 -0.6375 0.51 0 0 Z " fill="#050303" transform="translate(308,315)"/>
<path d="M0 0 C2.40783878 1.27559706 4.14371836 2.83908738 6.08398438 4.75097656 C6.80199219 5.43804687 7.52 6.12511719 8.25976562 6.83300781 C9.77148438 8.93847656 9.77148438 8.93847656 9.68652344 10.73120117 C8.36496228 13.91909723 6.07905363 15.99964094 3.64257812 18.36035156 C3.13348404 18.86520081 2.62438995 19.37005005 2.09986877 19.89019775 C0.47649317 21.49681635 -1.15701262 23.09267478 -2.79101562 24.68847656 C-3.89521613 25.77762641 -4.99874007 26.86746261 -6.1015625 27.95800781 C-8.80276853 30.62618416 -11.51310625 33.28475947 -14.22851562 35.93847656 C-12.65414653 39.80901106 -10.18509328 42.13970058 -7.18554688 45.00097656 C-6.18448064 45.97190283 -5.18384209 46.94327022 -4.18359375 47.91503906 C-2.60826071 49.43441832 -1.02935669 50.94955317 0.55737305 52.45703125 C2.09166642 53.91898586 3.61003916 55.39602669 5.12695312 56.87597656 C6.04114014 57.75125 6.95532715 58.62652344 7.8972168 59.52832031 C9.77148438 61.93847656 9.77148438 61.93847656 9.66845703 64.11889648 C8.45020628 66.59021463 6.89108318 68.29020097 4.95898438 70.25097656 C4.27191406 70.96898437 3.58484375 71.68699219 2.87695312 72.42675781 C0.77148438 73.93847656 0.77148438 73.93847656 -1.15486145 73.71592712 C-3.5343837 72.82380107 -4.72646229 71.80905929 -6.51245117 70.01098633 C-7.12956467 69.39687393 -7.74667816 68.78276154 -8.38249207 68.15003967 C-9.03679703 67.48338791 -9.69110199 66.81673615 -10.36523438 66.12988281 C-11.0452803 65.44796371 -11.72532623 64.76604462 -12.42597961 64.0634613 C-13.86082978 62.62189289 -15.29207959 61.17673323 -16.7199707 59.72827148 C-18.91104836 57.50601451 -21.11263978 55.29462837 -23.31640625 53.08496094 C-24.70830829 51.68388986 -26.09960531 50.28221739 -27.49023438 48.87988281 C-28.15061203 48.21525528 -28.81098969 47.55062775 -29.49137878 46.86585999 C-30.0990358 46.24859543 -30.70669281 45.63133087 -31.33276367 44.99536133 C-31.86918991 44.45210709 -32.40561615 43.90885284 -32.95829773 43.34913635 C-34.74804738 41.36150268 -35.22499577 39.9569558 -35.72851562 37.31347656 C-34.43686395 28.59482775 -22.9080881 20.33072135 -16.81176758 14.17163086 C-15.62055077 12.96366179 -14.43475127 11.75032898 -13.25415039 10.53198242 C-11.53481816 8.75821847 -9.79990569 7.0011728 -8.06054688 5.24707031 C-7.53443314 4.6982872 -7.0083194 4.14950409 -6.46626282 3.58409119 C-2.78421938 -0.07686495 -2.78421938 -0.07686495 0 0 Z " fill="#050303" transform="translate(203.228515625,315.0615234375)"/>
<path d="M0 0 C5.08938811 1.59043379 8.87456643 4.7446951 13 8 C11.40509259 13.21412039 8.10725759 16.94451204 4.75 21.125 C-0.24338772 27.43925674 -5.12780614 33.81105686 -9.875 40.3125 C-15.0971147 47.44953964 -20.39379012 54.52547364 -25.75 61.5625 C-26.44206543 62.47362549 -27.13413086 63.38475098 -27.84716797 64.32348633 C-28.49057129 65.1667749 -29.13397461 66.01006348 -29.796875 66.87890625 C-30.65297363 68.00147827 -30.65297363 68.00147827 -31.52636719 69.14672852 C-33 71 -33 71 -35 73 C-38.96 70.03 -42.92 67.06 -47 64 C-45.47694125 60.19235313 -44.64045963 58.2414333 -42.234375 55.2421875 C-41.68152832 54.54440186 -41.12868164 53.84661621 -40.55908203 53.12768555 C-39.96208496 52.38429932 -39.36508789 51.64091309 -38.75 50.875 C-33.75661617 44.56074817 -28.87207207 38.18902872 -24.125 31.6875 C-18.8867067 24.52587063 -13.56659879 17.43153619 -8.1875 10.375 C-7.48705566 9.45549561 -6.78661133 8.53599121 -6.06494141 7.58862305 C-1.13585279 1.13585279 -1.13585279 1.13585279 0 0 Z " fill="#030202" transform="translate(273,316)"/>
<path d="M0 0 C10.56 0 21.12 0 32 0 C32.061875 4.186875 32.12375 8.37375 32.1875 12.6875 C32.22846802 14.65529419 32.22846802 14.65529419 32.27026367 16.6628418 C32.27775635 17.70609619 32.28524902 18.74935059 32.29296875 19.82421875 C32.3086792 20.88729248 32.32438965 21.95036621 32.34057617 23.0456543 C31.94857676 26.44607354 31.07436927 28.2951584 29 31 C24.56039131 32.47986956 20.21322847 32.22497927 15.5625 32.25 C14.60794922 32.270625 13.65339844 32.29125 12.66992188 32.3125 C11.74888672 32.31765625 10.82785156 32.3228125 9.87890625 32.328125 C9.0391626 32.3374707 8.19941895 32.34681641 7.33422852 32.35644531 C4.44742792 31.9156202 3.1057398 30.99722064 1 29 C-0.07917226 25.76248322 -0.11425601 23.42248229 -0.09765625 20.01953125 C-0.09515869 18.97128174 -0.09266113 17.92303223 -0.09008789 16.84301758 C-0.08098389 15.51294678 -0.07187988 14.18287598 -0.0625 12.8125 C-0.041875 8.584375 -0.02125 4.35625 0 0 Z " fill="#F1EFEA" transform="translate(280,184)"/>
<path d="M0 0 C10.56 0 21.12 0 32 0 C32.061875 4.186875 32.12375 8.37375 32.1875 12.6875 C32.22846802 14.65529419 32.22846802 14.65529419 32.27026367 16.6628418 C32.27775635 17.70609619 32.28524902 18.74935059 32.29296875 19.82421875 C32.3086792 20.88729248 32.32438965 21.95036621 32.34057617 23.0456543 C31.94857676 26.44607354 31.07436927 28.2951584 29 31 C24.56039131 32.47986956 20.21322847 32.22497927 15.5625 32.25 C14.60794922 32.270625 13.65339844 32.29125 12.66992188 32.3125 C11.74888672 32.31765625 10.82785156 32.3228125 9.87890625 32.328125 C9.0391626 32.3374707 8.19941895 32.34681641 7.33422852 32.35644531 C4.44742792 31.9156202 3.1057398 30.99722064 1 29 C-0.07917226 25.76248322 -0.11425601 23.42248229 -0.09765625 20.01953125 C-0.09515869 18.97128174 -0.09266113 17.92303223 -0.09008789 16.84301758 C-0.08098389 15.51294678 -0.07187988 14.18287598 -0.0625 12.8125 C-0.041875 8.584375 -0.02125 4.35625 0 0 Z " fill="#F1EFEA" transform="translate(200,184)"/>
<path d="M0 0 C4.35699098 2.46622131 7.04335342 5.33670683 9.3125 9.875 C9.7087444 15.71960492 9.27176533 19.64696458 6.3125 24.875 C2.0151008 29.53352518 -1.43185414 30.69309308 -7.5625 31.1875 C-11.92205451 31.12267391 -14.3259369 29.70176897 -17.6875 26.875 C-22.08643104 21.88161882 -23.04426337 18.96484773 -22.96875 12.4140625 C-22.41766315 7.43897287 -19.68052299 4.74980597 -16.0625 1.5625 C-10.83094803 -2.15465535 -5.95356591 -1.81634214 0 0 Z " fill="#E1DED8" transform="translate(262.6875,417.125)"/>
<path d="M0 0 C0.05534912 0.64026123 0.11069824 1.28052246 0.16772461 1.94018555 C0.42144165 4.8562154 0.67942949 7.77185234 0.9375 10.6875 C1.02451172 11.69490234 1.11152344 12.70230469 1.20117188 13.74023438 C1.28818359 14.71669922 1.37519531 15.69316406 1.46484375 16.69921875 C1.543396 17.59471436 1.62194824 18.49020996 1.70288086 19.4128418 C1.99806253 21.98312949 2.4813681 24.46684751 3 27 C3.11678799 29.67678073 3.0454506 32.31841457 3 35 C-0.88520519 32.5461862 -4.55386861 29.87683529 -8.1875 27.0625 C-9.02667969 26.41410156 -9.86585938 25.76570313 -10.73046875 25.09765625 C-13.71303027 22.34096858 -15.65483366 19.78802384 -16.43359375 15.75390625 C-16.44321065 10.35882351 -15.70027853 7.20031617 -12 3 C-7.99510446 -0.2472126 -5.03350278 -0.10621694 0 0 Z " fill="#EDC883" transform="translate(152,184)"/>
<path d="M0 0 C6.22742271 -0.25187623 9.13051784 1.52630848 13.8125 5.5625 C16.62576046 8.96802582 16.34884166 12.8139001 16 17 C13.26618481 22.85526088 9.95824586 26.12954273 4.8125 29.9375 C4.17119141 30.43056641 3.52988281 30.92363281 2.86914062 31.43164062 C-1.81773362 35 -1.81773362 35 -3 35 C-2.38582209 23.28213196 -1.3053624 11.65954766 0 0 Z " fill="#EEC984" transform="translate(360,184)"/>
</svg>
